<mxfile host="app.diagrams.net" modified="2024-03-27T08:47:03.651Z" agent="Mozilla/5.0 (Windows NT 10.0; Win64; x64) AppleWebKit/537.36 (KHTML, like Gecko) Chrome/123.0.0.0 Safari/537.36" etag="G4Oq2OkbqMKaiUpEqaL-" version="24.2.0" type="github" pages="2">
  <diagram name="Page-1" id="e7e014a7-5840-1c2e-5031-d8a46d1fe8dd">
    <mxGraphModel dx="2100" dy="1940" grid="1" gridSize="10" guides="1" tooltips="1" connect="1" arrows="1" fold="1" page="1" pageScale="1" pageWidth="1169" pageHeight="826" background="none" math="0" shadow="0">
      <root>
        <mxCell id="0" />
        <mxCell id="1" parent="0" />
        <mxCell id="5FIJigdoWL1tGMBGzRmV-54" value="" style="edgeStyle=orthogonalEdgeStyle;rounded=0;orthogonalLoop=1;jettySize=auto;html=1;exitX=0.5;exitY=1;exitDx=0;exitDy=0;shadow=1;" edge="1" parent="1" source="5FIJigdoWL1tGMBGzRmV-125" target="5FIJigdoWL1tGMBGzRmV-53">
          <mxGeometry relative="1" as="geometry">
            <mxPoint x="480.5" y="58" as="sourcePoint" />
          </mxGeometry>
        </mxCell>
        <mxCell id="5FIJigdoWL1tGMBGzRmV-56" value="" style="edgeStyle=orthogonalEdgeStyle;rounded=0;orthogonalLoop=1;jettySize=auto;html=1;shadow=1;" edge="1" parent="1" source="5FIJigdoWL1tGMBGzRmV-53" target="5FIJigdoWL1tGMBGzRmV-55">
          <mxGeometry relative="1" as="geometry" />
        </mxCell>
        <mxCell id="5FIJigdoWL1tGMBGzRmV-53" value="&lt;font style=&quot;font-size: 14px;&quot;&gt;login&lt;/font&gt;" style="rounded=1;whiteSpace=wrap;html=1;arcSize=21;fillColor=#d5e8d4;strokeColor=#82b366;shadow=1;" vertex="1" parent="1">
          <mxGeometry x="421" y="98" width="120" height="60" as="geometry" />
        </mxCell>
        <mxCell id="5FIJigdoWL1tGMBGzRmV-58" value="" style="edgeStyle=orthogonalEdgeStyle;rounded=0;orthogonalLoop=1;jettySize=auto;html=1;exitX=0.963;exitY=0.495;exitDx=0;exitDy=0;exitPerimeter=0;shadow=1;" edge="1" parent="1" source="5FIJigdoWL1tGMBGzRmV-55" target="5FIJigdoWL1tGMBGzRmV-57">
          <mxGeometry relative="1" as="geometry" />
        </mxCell>
        <mxCell id="5FIJigdoWL1tGMBGzRmV-66" value="" style="edgeStyle=orthogonalEdgeStyle;rounded=0;orthogonalLoop=1;jettySize=auto;html=1;shadow=1;" edge="1" parent="1" source="5FIJigdoWL1tGMBGzRmV-55" target="5FIJigdoWL1tGMBGzRmV-65">
          <mxGeometry relative="1" as="geometry" />
        </mxCell>
        <mxCell id="5FIJigdoWL1tGMBGzRmV-55" value="&lt;font style=&quot;font-size: 14px;&quot;&gt;Email &amp;amp; Password&lt;/font&gt;&lt;div&gt;&lt;font style=&quot;font-size: 14px;&quot;&gt;is Valid&lt;/font&gt;&lt;/div&gt;" style="rhombus;whiteSpace=wrap;html=1;rounded=1;arcSize=21;fillColor=#e1d5e7;strokeColor=#9673a6;shadow=1;" vertex="1" parent="1">
          <mxGeometry x="393.5" y="208" width="175" height="120" as="geometry" />
        </mxCell>
        <mxCell id="5FIJigdoWL1tGMBGzRmV-57" value="Provide Error&lt;div&gt;Message&lt;/div&gt;" style="whiteSpace=wrap;html=1;rounded=1;arcSize=21;fillColor=#dae8fc;strokeColor=#6c8ebf;shadow=1;" vertex="1" parent="1">
          <mxGeometry x="680" y="238" width="120" height="60" as="geometry" />
        </mxCell>
        <mxCell id="5FIJigdoWL1tGMBGzRmV-68" value="" style="edgeStyle=orthogonalEdgeStyle;rounded=0;orthogonalLoop=1;jettySize=auto;html=1;shadow=1;" edge="1" parent="1" source="5FIJigdoWL1tGMBGzRmV-65">
          <mxGeometry relative="1" as="geometry">
            <mxPoint x="480" y="464" as="targetPoint" />
          </mxGeometry>
        </mxCell>
        <mxCell id="5FIJigdoWL1tGMBGzRmV-65" value="&lt;font style=&quot;font-size: 14px;&quot;&gt;Enter In Site&lt;/font&gt;" style="whiteSpace=wrap;html=1;rounded=1;arcSize=21;fillColor=#d5e8d4;strokeColor=#82b366;shadow=1;" vertex="1" parent="1">
          <mxGeometry x="421" y="364" width="120" height="60" as="geometry" />
        </mxCell>
        <mxCell id="5FIJigdoWL1tGMBGzRmV-69" value="" style="edgeStyle=segmentEdgeStyle;endArrow=classic;html=1;curved=0;rounded=0;endSize=8;startSize=8;exitX=0.5;exitY=0;exitDx=0;exitDy=0;shadow=1;" edge="1" parent="1" source="5FIJigdoWL1tGMBGzRmV-57">
          <mxGeometry width="50" height="50" relative="1" as="geometry">
            <mxPoint x="640" y="138" as="sourcePoint" />
            <mxPoint x="480" y="68" as="targetPoint" />
            <Array as="points">
              <mxPoint x="740" y="68" />
            </Array>
          </mxGeometry>
        </mxCell>
        <mxCell id="5FIJigdoWL1tGMBGzRmV-80" value="" style="endArrow=none;html=1;rounded=0;shadow=1;" edge="1" parent="1">
          <mxGeometry width="50" height="50" relative="1" as="geometry">
            <mxPoint x="213" y="464" as="sourcePoint" />
            <mxPoint x="743" y="464" as="targetPoint" />
            <Array as="points">
              <mxPoint x="633" y="464" />
            </Array>
          </mxGeometry>
        </mxCell>
        <mxCell id="5FIJigdoWL1tGMBGzRmV-81" value="" style="endArrow=classic;html=1;rounded=0;shadow=1;" edge="1" parent="1">
          <mxGeometry width="50" height="50" relative="1" as="geometry">
            <mxPoint x="213" y="464" as="sourcePoint" />
            <mxPoint x="213" y="514" as="targetPoint" />
          </mxGeometry>
        </mxCell>
        <mxCell id="5FIJigdoWL1tGMBGzRmV-83" value="&lt;font style=&quot;font-size: 14px;&quot;&gt;manage&amp;nbsp;&lt;/font&gt;&lt;div&gt;&lt;font style=&quot;font-size: 14px;&quot;&gt;Event&lt;/font&gt;&lt;/div&gt;" style="whiteSpace=wrap;html=1;rounded=1;arcSize=6;glass=0;fillColor=#e1d5e7;strokeColor=#9673a6;shadow=1;" vertex="1" parent="1">
          <mxGeometry x="173" y="514" width="80" height="70" as="geometry" />
        </mxCell>
        <mxCell id="5FIJigdoWL1tGMBGzRmV-85" value="" style="endArrow=classic;html=1;rounded=0;shadow=1;" edge="1" parent="1">
          <mxGeometry width="50" height="50" relative="1" as="geometry">
            <mxPoint x="302" y="465" as="sourcePoint" />
            <mxPoint x="302" y="515" as="targetPoint" />
          </mxGeometry>
        </mxCell>
        <mxCell id="5FIJigdoWL1tGMBGzRmV-86" value="&lt;font style=&quot;font-size: 14px;&quot;&gt;manage&amp;nbsp;&lt;/font&gt;&lt;div&gt;&lt;span style=&quot;font-size: 14px;&quot;&gt;Themes&lt;/span&gt;&lt;/div&gt;" style="whiteSpace=wrap;html=1;rounded=1;arcSize=6;fillColor=#e1d5e7;strokeColor=#9673a6;shadow=1;" vertex="1" parent="1">
          <mxGeometry x="262" y="515" width="80" height="70" as="geometry" />
        </mxCell>
        <mxCell id="5FIJigdoWL1tGMBGzRmV-87" value="" style="endArrow=classic;html=1;rounded=0;shadow=1;" edge="1" parent="1">
          <mxGeometry width="50" height="50" relative="1" as="geometry">
            <mxPoint x="390" y="465" as="sourcePoint" />
            <mxPoint x="390" y="515" as="targetPoint" />
          </mxGeometry>
        </mxCell>
        <mxCell id="5FIJigdoWL1tGMBGzRmV-88" value="&lt;font style=&quot;font-size: 14px;&quot;&gt;manage&amp;nbsp;&lt;/font&gt;&lt;div&gt;&lt;span style=&quot;font-size: 14px;&quot;&gt;Services&lt;/span&gt;&lt;/div&gt;" style="whiteSpace=wrap;html=1;rounded=1;arcSize=6;fillColor=#e1d5e7;strokeColor=#9673a6;shadow=1;" vertex="1" parent="1">
          <mxGeometry x="350" y="515" width="80" height="70" as="geometry" />
        </mxCell>
        <mxCell id="5FIJigdoWL1tGMBGzRmV-89" value="" style="endArrow=classic;html=1;rounded=0;shadow=1;" edge="1" parent="1">
          <mxGeometry width="50" height="50" relative="1" as="geometry">
            <mxPoint x="479" y="465" as="sourcePoint" />
            <mxPoint x="479" y="515" as="targetPoint" />
          </mxGeometry>
        </mxCell>
        <mxCell id="5FIJigdoWL1tGMBGzRmV-90" value="&lt;font style=&quot;font-size: 14px;&quot;&gt;manage&amp;nbsp;&lt;/font&gt;&lt;div&gt;&lt;span style=&quot;font-size: 14px;&quot;&gt;New Booking&lt;/span&gt;&lt;/div&gt;" style="whiteSpace=wrap;html=1;rounded=1;arcSize=6;fillColor=#e1d5e7;strokeColor=#9673a6;shadow=1;" vertex="1" parent="1">
          <mxGeometry x="439" y="515" width="80" height="70" as="geometry" />
        </mxCell>
        <mxCell id="5FIJigdoWL1tGMBGzRmV-93" value="" style="endArrow=classic;html=1;rounded=0;shadow=1;" edge="1" parent="1">
          <mxGeometry width="50" height="50" relative="1" as="geometry">
            <mxPoint x="567" y="464" as="sourcePoint" />
            <mxPoint x="567" y="514" as="targetPoint" />
          </mxGeometry>
        </mxCell>
        <mxCell id="5FIJigdoWL1tGMBGzRmV-94" value="&lt;font style=&quot;font-size: 14px;&quot;&gt;manage&amp;nbsp;&lt;/font&gt;&lt;div style=&quot;font-size: 14px;&quot;&gt;User&lt;/div&gt;" style="whiteSpace=wrap;html=1;rounded=1;arcSize=6;fillColor=#e1d5e7;strokeColor=#9673a6;shadow=1;" vertex="1" parent="1">
          <mxGeometry x="527" y="514" width="80" height="70" as="geometry" />
        </mxCell>
        <mxCell id="5FIJigdoWL1tGMBGzRmV-96" value="" style="endArrow=classic;html=1;rounded=0;shadow=1;" edge="1" parent="1">
          <mxGeometry width="50" height="50" relative="1" as="geometry">
            <mxPoint x="654" y="464" as="sourcePoint" />
            <mxPoint x="654" y="514" as="targetPoint" />
          </mxGeometry>
        </mxCell>
        <mxCell id="5FIJigdoWL1tGMBGzRmV-97" value="&lt;font style=&quot;font-size: 14px;&quot;&gt;manage&amp;nbsp;&lt;/font&gt;&lt;div style=&quot;font-size: 14px;&quot;&gt;Reports&lt;/div&gt;" style="whiteSpace=wrap;html=1;rounded=1;arcSize=6;fillColor=#e1d5e7;strokeColor=#9673a6;shadow=1;" vertex="1" parent="1">
          <mxGeometry x="614" y="514" width="80" height="70" as="geometry" />
        </mxCell>
        <mxCell id="5FIJigdoWL1tGMBGzRmV-98" value="" style="endArrow=classic;html=1;rounded=0;shadow=1;" edge="1" parent="1">
          <mxGeometry width="50" height="50" relative="1" as="geometry">
            <mxPoint x="743" y="464" as="sourcePoint" />
            <mxPoint x="743" y="514" as="targetPoint" />
          </mxGeometry>
        </mxCell>
        <mxCell id="5FIJigdoWL1tGMBGzRmV-99" value="&lt;font style=&quot;font-size: 14px;&quot;&gt;manage&amp;nbsp;&lt;/font&gt;&lt;div style=&quot;font-size: 14px;&quot;&gt;invoice&lt;/div&gt;" style="whiteSpace=wrap;html=1;rounded=1;arcSize=6;fillColor=#e1d5e7;strokeColor=#9673a6;shadow=1;" vertex="1" parent="1">
          <mxGeometry x="703" y="514" width="80" height="70" as="geometry" />
        </mxCell>
        <mxCell id="5FIJigdoWL1tGMBGzRmV-108" value="" style="endArrow=none;html=1;rounded=0;shadow=1;" edge="1" parent="1">
          <mxGeometry width="50" height="50" relative="1" as="geometry">
            <mxPoint x="210" y="634" as="sourcePoint" />
            <mxPoint x="750" y="634" as="targetPoint" />
            <Array as="points">
              <mxPoint x="630" y="634" />
            </Array>
          </mxGeometry>
        </mxCell>
        <mxCell id="5FIJigdoWL1tGMBGzRmV-109" value="" style="endArrow=classic;html=1;rounded=0;shadow=1;" edge="1" parent="1">
          <mxGeometry width="50" height="50" relative="1" as="geometry">
            <mxPoint x="215.5" y="585" as="sourcePoint" />
            <mxPoint x="215.5" y="635" as="targetPoint" />
          </mxGeometry>
        </mxCell>
        <mxCell id="5FIJigdoWL1tGMBGzRmV-110" value="" style="endArrow=classic;html=1;rounded=0;shadow=1;" edge="1" parent="1">
          <mxGeometry width="50" height="50" relative="1" as="geometry">
            <mxPoint x="304.5" y="586" as="sourcePoint" />
            <mxPoint x="304.5" y="636" as="targetPoint" />
          </mxGeometry>
        </mxCell>
        <mxCell id="5FIJigdoWL1tGMBGzRmV-111" value="" style="endArrow=classic;html=1;rounded=0;shadow=1;" edge="1" parent="1">
          <mxGeometry width="50" height="50" relative="1" as="geometry">
            <mxPoint x="392.5" y="586" as="sourcePoint" />
            <mxPoint x="392.5" y="636" as="targetPoint" />
          </mxGeometry>
        </mxCell>
        <mxCell id="5FIJigdoWL1tGMBGzRmV-112" value="" style="endArrow=classic;html=1;rounded=0;shadow=1;" edge="1" parent="1">
          <mxGeometry width="50" height="50" relative="1" as="geometry">
            <mxPoint x="481.5" y="586" as="sourcePoint" />
            <mxPoint x="481.5" y="636" as="targetPoint" />
          </mxGeometry>
        </mxCell>
        <mxCell id="5FIJigdoWL1tGMBGzRmV-113" value="" style="endArrow=classic;html=1;rounded=0;shadow=1;" edge="1" parent="1">
          <mxGeometry width="50" height="50" relative="1" as="geometry">
            <mxPoint x="569.5" y="585" as="sourcePoint" />
            <mxPoint x="569.5" y="635" as="targetPoint" />
          </mxGeometry>
        </mxCell>
        <mxCell id="5FIJigdoWL1tGMBGzRmV-114" value="" style="endArrow=classic;html=1;rounded=0;shadow=1;" edge="1" parent="1">
          <mxGeometry width="50" height="50" relative="1" as="geometry">
            <mxPoint x="656.5" y="585" as="sourcePoint" />
            <mxPoint x="656.5" y="635" as="targetPoint" />
          </mxGeometry>
        </mxCell>
        <mxCell id="5FIJigdoWL1tGMBGzRmV-115" value="" style="endArrow=classic;html=1;rounded=0;shadow=1;" edge="1" parent="1">
          <mxGeometry width="50" height="50" relative="1" as="geometry">
            <mxPoint x="745.5" y="585" as="sourcePoint" />
            <mxPoint x="745.5" y="635" as="targetPoint" />
          </mxGeometry>
        </mxCell>
        <mxCell id="5FIJigdoWL1tGMBGzRmV-119" value="" style="edgeStyle=orthogonalEdgeStyle;rounded=0;orthogonalLoop=1;jettySize=auto;html=1;shadow=1;" edge="1" parent="1" target="5FIJigdoWL1tGMBGzRmV-121">
          <mxGeometry relative="1" as="geometry">
            <mxPoint x="481" y="638" as="sourcePoint" />
          </mxGeometry>
        </mxCell>
        <mxCell id="5FIJigdoWL1tGMBGzRmV-120" value="" style="edgeStyle=orthogonalEdgeStyle;rounded=0;orthogonalLoop=1;jettySize=auto;html=1;shadow=1;" edge="1" parent="1" source="5FIJigdoWL1tGMBGzRmV-121">
          <mxGeometry relative="1" as="geometry">
            <mxPoint x="480" y="774" as="targetPoint" />
          </mxGeometry>
        </mxCell>
        <mxCell id="5FIJigdoWL1tGMBGzRmV-121" value="&lt;font style=&quot;font-size: 14px;&quot;&gt;Log Out&lt;/font&gt;" style="whiteSpace=wrap;html=1;rounded=1;arcSize=21;fillColor=#d5e8d4;strokeColor=#82b366;shadow=1;" vertex="1" parent="1">
          <mxGeometry x="421" y="674" width="120" height="60" as="geometry" />
        </mxCell>
        <mxCell id="5FIJigdoWL1tGMBGzRmV-123" value="" style="ellipse;html=1;shape=endState;fillColor=#ffe6cc;strokeColor=#d79b00;shadow=1;" vertex="1" parent="1">
          <mxGeometry x="444" y="776" width="72" height="74" as="geometry" />
        </mxCell>
        <mxCell id="5FIJigdoWL1tGMBGzRmV-125" value="" style="ellipse;html=1;shape=endState;fillColor=#ffe6cc;strokeColor=#d79b00;shadow=1;" vertex="1" parent="1">
          <mxGeometry x="444" y="-25" width="72" height="74" as="geometry" />
        </mxCell>
      </root>
    </mxGraphModel>
  </diagram>
  <diagram id="F0urwtcc_CpwcmZfj7GW" name="Page-2">
    <mxGraphModel dx="1050" dy="557" grid="1" gridSize="10" guides="1" tooltips="1" connect="1" arrows="1" fold="1" page="1" pageScale="1" pageWidth="827" pageHeight="1169" math="0" shadow="0">
      <root>
        <mxCell id="0" />
        <mxCell id="1" parent="0" />
      </root>
    </mxGraphModel>
  </diagram>
</mxfile>
